<svg xmlns="http://www.w3.org/2000/svg" x="0px" y="0px"
width="48" height="48"
viewBox="0 0 172 172"
style=" fill:#000000;">
<g fill="none" fill-rule="nonzero" stroke="none" stroke-width="1" stroke-linecap="butt" stroke-linejoin="miter" stroke-miterlimit="10" stroke-dasharray="" stroke-dashoffset="0" font-family="none" font-weight="none" font-size="none" text-anchor="none" style="mix-blend-mode: normal">
<path d="M0,172v-172h172v172z" fill="none"></path>
<g fill="#5936fc">
<path d="M140.63867,36.46758c-10.04767,-4.61175 -20.82633,-8.00875 -32.09233,-9.9545c-0.20425,-0.03583 -0.4085,0.05733 -0.516,0.24367c-1.38675,2.46533 -2.92042,5.67958 -3.99542,8.20942c-12.11883,-1.81317 -24.17675,-1.81317 -36.04475,0c-1.075,-2.58358 -2.666,-5.74408 -4.05992,-8.20942c-0.1075,-0.18275 -0.31175,-0.27592 -0.516,-0.24367c-11.26242,1.93858 -22.0375,5.33558 -32.09233,9.9545c-0.086,0.03583 -0.16125,0.10033 -0.21142,0.18275c-20.43933,30.53717 -26.04008,60.32542 -23.29167,89.741c0.01075,0.14333 0.09317,0.28308 0.20425,0.36908c13.48408,9.90433 26.54892,15.91717 39.37008,19.90183c0.20425,0.06092 0.42283,-0.01075 0.55183,-0.18275c3.0315,-4.14233 5.73692,-8.50683 8.05533,-13.10067c0.13617,-0.26875 0.00717,-0.58767 -0.27233,-0.69517c-4.28925,-1.62683 -8.37067,-3.60842 -12.298,-5.86233c-0.31175,-0.18275 -0.33683,-0.62708 -0.05017,-0.8385c0.82775,-0.61992 1.65192,-1.26492 2.44383,-1.9135c0.14333,-0.11825 0.34042,-0.14333 0.50883,-0.06808c25.80358,11.782 53.73925,11.782 79.23825,0c0.16842,-0.08242 0.3655,-0.05733 0.516,0.06092c0.78833,0.65217 1.61608,1.30075 2.44742,1.92067c0.28667,0.21142 0.26875,0.65575 -0.043,0.8385c-3.92733,2.29692 -8.01233,4.2355 -12.30517,5.85517c-0.2795,0.1075 -0.40492,0.43 -0.26875,0.70233c2.36858,4.58667 5.07042,8.95117 8.04817,13.0935c0.12542,0.17558 0.34758,0.25083 0.55183,0.18633c12.88208,-3.98467 25.94692,-9.9975 39.431,-19.90183c0.11825,-0.086 0.1935,-0.21858 0.20425,-0.36192c3.28592,-34.00942 -5.50758,-63.55042 -23.30958,-89.741c-0.043,-0.086 -0.11825,-0.1505 -0.20425,-0.18633zM59.85242,108.47825c-7.76867,0 -14.1685,-7.13083 -14.1685,-15.89208c0,-8.76125 6.278,-15.89208 14.1685,-15.89208c7.955,0 14.29392,7.19533 14.1685,15.89208c0.00358,8.75767 -6.27442,15.89208 -14.1685,15.89208zM112.24433,108.47825c-7.76867,0 -14.1685,-7.13083 -14.1685,-15.89208c0,-8.76125 6.278,-15.89208 14.1685,-15.89208c7.955,0 14.29392,7.19533 14.1685,15.89208c0,8.75767 -6.2135,15.89208 -14.1685,15.89208z">
</path>
</g>
</g>
</svg>