<svg xmlns="http://www.w3.org/2000/svg" x="0px" y="0px"
width="100" height="100"
viewBox="0 0 172 172"
style=" fill:#000000;">
<g fill="none" fill-rule="nonzero" stroke="none" stroke-width="1" stroke-linecap="butt" stroke-linejoin="miter" stroke-miterlimit="10" stroke-dasharray="" stroke-dashoffset="0" font-family="none" font-weight="none" font-size="none" text-anchor="none" style="mix-blend-mode: normal"><path d="M0,172v-172h172v172z" fill="none"></path>
<g fill="#280a80">
<path d="M85.84592,17.94533l-12.54167,11.825c4.3,6.45 6.09167,13.61667 6.09167,17.55833c-3.94167,-6.80833 -7.16667,-8.6 -11.46667,-11.10833l-10.75,10.75c11.10833,3.94167 21.5,15.05 21.5,28.66667c0,6.45 -3.94167,22.21667 -19.35,21.5v0c-11.46667,-1.43333 -22.21667,-14.69167 -23.29167,-29.38333c-1.075,-14.69167 3.94167,-26.875 14.33333,-38.7v0c-18.63333,11.10833 -30.45833,29.025 -31.89167,51.95833c0,0.71667 0,1.075 0,1.79167v0c0,0.71667 0,1.075 0,1.79167c0,0.71667 0,1.075 0,1.79167c0,37.625 30.45833,68.08333 68.08333,68.08333c37.625,0 68.08333,-30.45833 68.08333,-68.08333c0,-1.79167 0,-3.58333 -0.35833,-5.375c-1.79167,-22.93333 -13.25833,-40.85 -31.89167,-51.95833v0c10.03333,11.825 15.05,24.36667 14.33333,38.7c-1.075,14.69167 -11.825,27.95 -23.29167,29.38333v0c-15.76667,0.71667 -19.35,-15.05 -19.35,-21.5c0,-13.61667 10.39167,-24.725 21.5,-28.66667l-10.75,-10.75c-3.94167,2.86667 -7.525,4.65833 -11.46667,11.10833c0,-3.94167 1.79167,-11.10833 6.09167,-17.55833z">
</path>
</g>
</g>
</svg>